<?xml version="1.0" standalone="no"?>
<!DOCTYPE svg PUBLIC "-//W3C//DTD SVG 20010904//EN"
 "http://www.w3.org/TR/2001/REC-SVG-20010904/DTD/svg10.dtd">
<svg version="1.0" xmlns="http://www.w3.org/2000/svg"
 width="225.000000pt" height="225.000000pt" viewBox="0 0 225.000000 225.000000"
 preserveAspectRatio="xMidYMid meet">

<g transform="translate(0.000000,225.000000) scale(0.100000,-0.100000)"
fill="#000000" stroke="none">
<path d="M210 1250 l0 -170 68 0 67 0 -2 55 c0 30 2 55 6 55 4 0 29 -25 55
-55 l47 -55 87 0 86 0 -60 63 c-33 34 -70 74 -83 88 l-23 27 84 81 83 80 -70
1 -71 0 -64 -65 c-35 -36 -68 -65 -72 -65 -4 0 -8 29 -8 65 l0 65 -65 0 -65 0
0 -170z"/>
<path d="M690 1407 c-80 -39 -94 -224 -23 -299 l27 -28 143 0 143 0 0 35 0 35
-93 0 c-78 0 -97 3 -110 18 -10 10 -17 26 -17 35 0 15 14 17 110 17 l110 0 0
33 0 32 -110 -3 c-94 -3 -110 -1 -110 12 0 9 9 25 20 36 17 17 33 20 110 20
l90 0 0 35 0 35 -132 0 c-85 0 -142 -5 -158 -13z"/>
<path d="M1050 1250 l0 -170 70 0 70 0 0 62 0 62 47 -62 48 -62 79 0 c88 0 87
-8 14 81 -38 47 -47 69 -28 69 25 0 60 50 60 85 0 87 -39 105 -225 105 l-135
0 0 -170z m241 100 c21 -12 25 -40 7 -58 -7 -7 -36 -12 -65 -12 l-53 0 0 33
c0 19 3 37 7 40 10 11 82 8 104 -3z"/>
<path d="M1470 1290 c0 -198 11 -210 195 -210 115 0 117 0 146 29 l29 29 0
141 0 141 -45 0 -45 0 0 -113 c0 -128 -9 -147 -69 -147 -67 0 -71 7 -71 140
l0 120 -70 0 -70 0 0 -130z"/>
<path d="M1900 1250 l0 -170 70 0 70 0 0 170 0 170 -70 0 -70 0 0 -170z"/>
<path d="M210 895 c0 -51 3 -65 15 -65 10 0 15 10 15 33 l0 32 26 -32 c14 -18
35 -33 46 -33 19 0 19 2 -6 35 l-27 35 21 28 c19 23 20 27 6 30 -9 2 -27 -9
-41 -25 l-24 -28 -1 28 c0 17 -5 27 -15 27 -12 0 -15 -14 -15 -65z"/>
<path d="M340 895 l0 -65 50 0 c28 0 50 5 50 10 0 6 -13 10 -30 10 -23 0 -30
4 -30 20 0 16 7 20 30 20 17 0 30 5 30 10 0 6 -13 10 -30 10 -20 0 -30 5 -30
15 0 10 10 15 30 15 17 0 30 5 30 10 0 6 -22 10 -50 10 l-50 0 0 -65z"/>
<path d="M460 895 c0 -58 2 -65 20 -65 15 0 20 7 20 25 0 15 6 25 14 25 8 0
17 -11 20 -25 4 -16 13 -25 26 -25 19 0 19 2 7 33 -10 22 -11 37 -4 48 20 32
1 49 -53 49 l-50 0 0 -65z m75 25 c0 -8 -8 -16 -17 -18 -13 -2 -18 3 -18 18 0
15 5 20 18 18 9 -2 17 -10 17 -18z"/>
<path d="M590 917 c0 -57 22 -87 64 -87 45 0 56 16 56 77 0 40 -4 53 -14 53
-11 0 -16 -15 -18 -52 -3 -45 -6 -53 -23 -53 -17 0 -20 8 -23 53 -3 44 -6 52
-23 52 -16 0 -19 -7 -19 -43z"/>
<path d="M740 895 c0 -51 3 -65 15 -65 12 0 15 14 15 65 0 51 -3 65 -15 65
-12 0 -15 -14 -15 -65z"/>
<path d="M860 895 c0 -50 3 -65 14 -65 8 0 16 10 18 22 2 17 11 24 33 28 24 4
31 11 33 34 4 35 -10 46 -60 46 l-38 0 0 -65z m65 25 c0 -8 -8 -16 -17 -18
-13 -2 -18 3 -18 18 0 15 5 20 18 18 9 -2 17 -10 17 -18z"/>
<path d="M980 895 l0 -65 50 0 c28 0 50 5 50 10 0 6 -13 10 -30 10 -23 0 -30
4 -30 20 0 15 7 20 25 20 14 0 25 5 25 10 0 6 -11 10 -25 10 -16 0 -25 6 -25
15 0 10 10 15 30 15 17 0 30 5 30 10 0 6 -22 10 -50 10 l-50 0 0 -65z"/>
<path d="M1090 951 c0 -5 9 -11 20 -14 17 -4 20 -14 20 -56 0 -39 4 -51 15
-51 12 0 15 13 15 55 0 48 2 55 20 55 11 0 20 5 20 10 0 6 -25 10 -55 10 -30
0 -55 -4 -55 -9z"/>
<path d="M1210 895 c0 -58 2 -65 20 -65 15 0 20 7 20 25 0 14 5 25 10 25 6 0
16 -11 22 -25 6 -14 20 -25 30 -25 18 0 18 2 2 31 -11 23 -13 34 -5 42 16 16
13 44 -5 51 -9 3 -33 6 -55 6 l-39 0 0 -65z m76 34 c3 -6 0 -15 -7 -20 -22
-14 -29 -11 -29 11 0 21 24 27 36 9z"/>
<path d="M1356 944 c-9 -8 -16 -31 -16 -49 0 -18 7 -41 16 -49 8 -9 31 -16 49
-16 44 0 65 22 65 70 0 29 -5 42 -19 50 -29 15 -77 12 -95 -6z m72 -16 c28
-28 2 -88 -33 -75 -20 8 -30 54 -15 72 15 18 32 19 48 3z"/>
<path d="M1500 895 l0 -65 45 0 c25 0 45 5 45 10 0 6 -13 10 -30 10 -30 0 -30
1 -30 55 0 42 -3 55 -15 55 -12 0 -15 -14 -15 -65z"/>
<path d="M1600 895 l0 -65 50 0 c28 0 50 5 50 10 0 6 -13 10 -30 10 -23 0 -30
4 -30 20 0 16 7 20 30 20 17 0 30 5 30 10 0 6 -13 10 -30 10 -20 0 -30 5 -30
15 0 10 10 15 30 15 17 0 30 5 30 10 0 6 -22 10 -50 10 l-50 0 0 -65z"/>
<path d="M1730 907 c0 -61 11 -77 55 -77 44 0 55 16 55 77 0 40 -4 53 -14 53
-11 0 -16 -15 -18 -52 -3 -45 -6 -53 -23 -53 -17 0 -20 8 -23 53 -2 37 -7 52
-18 52 -10 0 -14 -13 -14 -53z"/>
<path d="M1870 895 c0 -50 3 -65 14 -65 11 0 16 14 18 48 l3 47 16 -45 c22
-64 43 -63 66 2 l18 53 3 -52 c2 -38 7 -53 18 -53 11 0 14 15 14 65 0 64 0 65
-28 65 -25 0 -29 -5 -41 -47 l-14 -48 -15 48 c-14 41 -19 47 -44 47 -28 0 -28
0 -28 -65z"/>
</g>
</svg>
